<?xml version="1.0" encoding="UTF-8"?>
<svg version="1.1" xmlns="http://www.w3.org/2000/svg" width="240" height="240">
<path d="M0 0 C1.42188788 -0.00435481 2.84377341 -0.00954051 4.26565552 -0.01548767 C8.10460844 -0.02880648 11.94346248 -0.02946431 15.78243399 -0.02692437 C18.99787144 -0.02584977 22.21328928 -0.03075049 25.4287225 -0.03552979 C33.02020511 -0.04660044 40.61163823 -0.04707622 48.203125 -0.04101562 C56.01083602 -0.03497785 63.81836674 -0.04728744 71.62604702 -0.06858569 C78.35162175 -0.08625131 85.07713935 -0.09219524 91.8027364 -0.08894795 C95.8098543 -0.08714279 99.81684358 -0.08969407 103.82394028 -0.10366249 C107.59483239 -0.11631729 111.36544521 -0.11422523 115.13633347 -0.1012516 C117.16306042 -0.09779134 119.18979621 -0.10900721 121.2164917 -0.12081909 C136.49029487 -0.03375843 150.59937538 4.60011186 161.91455078 15.27075195 C174.77710041 29.31008804 179.06039185 42.80802308 179.02514648 61.52416992 C179.0295013 62.9460578 179.03468699 64.36794333 179.04063416 65.78982544 C179.05395297 69.62877836 179.0546108 73.46763241 179.05207086 77.30660391 C179.05099626 80.52204136 179.05589697 83.7374592 179.06067628 86.95289242 C179.07174692 94.54437503 179.0722227 102.13580816 179.06616211 109.72729492 C179.06012433 117.53500594 179.07243393 125.34253666 179.09373218 133.15021694 C179.1113978 139.87579167 179.11734173 146.60130927 179.11409444 153.32690632 C179.11228927 157.33402423 179.11484055 161.3410135 179.12880898 165.3481102 C179.14146377 169.11900231 179.13937171 172.88961513 179.12639809 176.66050339 C179.12293783 178.68723034 179.13415369 180.71396613 179.14596558 182.74066162 C179.05890491 198.0144648 174.42503463 212.1235453 163.75439453 223.4387207 C149.71505844 236.30127033 136.2171234 240.58456177 117.50097656 240.54931641 C116.07908869 240.55367122 114.65720315 240.55885691 113.23532104 240.56480408 C109.39636812 240.57812289 105.55751408 240.57878072 101.71854258 240.57624078 C98.50310513 240.57516618 95.28768728 240.5800669 92.07225406 240.5848462 C84.48077145 240.59591685 76.88933833 240.59639263 69.29785156 240.59033203 C61.49014054 240.58429425 53.68260982 240.59660385 45.87492955 240.6179021 C39.14935481 240.63556772 32.42383722 240.64151165 25.69824016 240.63826436 C21.69112226 240.63645919 17.68413298 240.63901047 13.67703629 240.6529789 C9.90614417 240.66563369 6.13553135 240.66354164 2.3646431 240.65056801 C0.33791614 240.64710775 -1.68881965 240.65832361 -3.71551514 240.6701355 C-18.98931831 240.58307483 -33.09839881 235.94920455 -44.41357422 225.27856445 C-57.27612385 211.23922837 -61.55941528 197.74129332 -61.52416992 179.02514648 C-61.52852473 177.60325861 -61.53371043 176.18137307 -61.53965759 174.75949097 C-61.5529764 170.92053804 -61.55363423 167.081684 -61.55109429 163.2427125 C-61.5500197 160.02727505 -61.55492041 156.81185721 -61.55969971 153.59642398 C-61.57077036 146.00494137 -61.57124614 138.41350825 -61.56518555 130.82202148 C-61.55914777 123.01431046 -61.57145737 115.20677974 -61.59275562 107.39909947 C-61.61042123 100.67352474 -61.61636517 93.94800714 -61.61311787 87.22241008 C-61.61131271 83.21529218 -61.61386399 79.20830291 -61.62783241 75.20120621 C-61.64048721 71.43031409 -61.63839515 67.65970127 -61.62542152 63.88881302 C-61.62196127 61.86208607 -61.63317713 59.83535027 -61.64498901 57.80865479 C-61.55792835 42.53485161 -56.92405807 28.42577111 -46.25341797 17.1105957 C-32.21408188 4.24804607 -18.71614684 -0.03524536 0 0 Z " fill="#FF4A4A" transform="translate(61.24951171875,-0.274658203125)"/>
<path d="M0 0 C1.84654896 0.01868019 3.69314791 0.03290113 5.5397644 0.0428772 C10.37109216 0.08083474 15.19935364 0.1788566 20.02947998 0.28991699 C24.96975226 0.39270999 29.91052622 0.43799073 34.8515625 0.48828125 C44.52477567 0.59512995 54.19572542 0.76551641 63.8671875 0.9765625 C66.94262695 6.70904541 66.94262695 6.70904541 66.26367188 9.11669922 C64.77092297 11.10476935 63.23650187 12.93102751 61.5234375 14.734375 C60.85884521 15.43763916 60.19425293 16.14090332 59.50952148 16.86547852 C58.80255127 17.60338623 58.09558105 18.34129395 57.3671875 19.1015625 C56.28449585 20.24226196 56.28449585 20.24226196 55.17993164 21.40600586 C50.52153505 26.29771287 45.78097943 31.09185453 40.9765625 35.83984375 C38.33031667 38.52039277 35.83753192 41.30306518 33.40234375 44.17578125 C32.41895745 45.32932091 31.40765607 46.45996569 30.36328125 47.55859375 C26.97576337 51.21634097 25.8671875 53.99066384 25.8671875 58.9765625 C27.53653526 64.46156228 31.52613043 67.81678076 35.546875 71.6953125 C37.56383567 73.6783176 39.41412309 75.69674262 41.2421875 77.8515625 C44.56762446 81.73381682 48.16855539 85.30780818 51.80444336 88.89428711 C55.17836277 92.24017327 58.34487538 95.70509975 61.4296875 99.31640625 C63.14899393 101.3020183 64.97283749 103.15798649 66.8671875 104.9765625 C64.9921875 110.7265625 64.9921875 110.7265625 63.8671875 112.9765625 C53.16645575 113.13895384 42.46601845 113.26323339 31.76430416 113.3392477 C26.79465564 113.37573657 21.82585183 113.4252065 16.85668945 113.50463867 C12.05852049 113.58085506 7.26116247 113.62258548 2.46243477 113.6407032 C0.63434651 113.65360944 -1.19369874 113.67881367 -3.02144051 113.7166729 C-17.39449122 114.00247462 -17.39449122 114.00247462 -21.8522644 111.37161255 C-23.58643752 109.65538633 -24.91759945 108.08447539 -26.1328125 105.9765625 C-28.99864713 107.14412476 -30.30331224 108.17381386 -32.37113953 110.56608582 C-35.95830155 113.6970758 -38.78034482 113.65182071 -43.31958008 113.54418945 C-44.53499481 113.54528465 -44.53499481 113.54528465 -45.77496338 113.54640198 C-48.44311351 113.542929 -51.10950007 113.50408353 -53.77734375 113.46484375 C-55.63106838 113.45551455 -57.48480537 113.44839894 -59.33854675 113.44340515 C-64.20997343 113.42434374 -69.08065091 113.37525035 -73.95178223 113.31988525 C-78.92543402 113.26867427 -83.89920725 113.24588716 -88.87304688 113.22070312 C-98.62663068 113.16713077 -108.37965921 113.08182833 -118.1328125 112.9765625 C-121.20556641 107.24414062 -121.20556641 107.24414062 -120.55078125 104.8359375 C-118.97872903 102.77451366 -117.32488179 101.01381503 -115.4453125 99.2265625 C-112.75276898 96.60652913 -110.19454871 93.96082067 -107.7578125 91.1015625 C-104.23284476 86.99714801 -100.40965119 83.23787731 -96.5625 79.4375 C-93.81031644 76.64991858 -91.23370146 73.75399419 -88.703125 70.765625 C-86.92977246 68.74523828 -85.04010969 66.87014869 -83.1328125 64.9765625 C-83.96006836 64.9672168 -84.78732422 64.95787109 -85.63964844 64.94824219 C-89.38797665 64.89455931 -93.13505412 64.8109054 -96.8828125 64.7265625 C-98.18476562 64.71238281 -99.48671875 64.69820312 -100.828125 64.68359375 C-102.07851562 64.65136719 -103.32890625 64.61914062 -104.6171875 64.5859375 C-105.76928711 64.56499023 -106.92138672 64.54404297 -108.10839844 64.52246094 C-111.72522069 63.86963445 -112.92095912 62.85927832 -115.1328125 59.9765625 C-116.38463727 54.04880402 -115.55944661 48.07064885 -112.5390625 42.828125 C-109.03138571 38.20968389 -104.50325879 34.23308344 -99.1328125 31.9765625 C-96.79638672 31.77883911 -96.79638672 31.77883911 -94.1875 31.84814453 C-93.20547607 31.86700714 -92.22345215 31.88586975 -91.21166992 31.90530396 C-90.15439697 31.9313974 -89.09712402 31.95749084 -88.0078125 31.984375 C-85.7513254 32.00306591 -83.49481024 32.01858793 -81.23828125 32.03125 C-77.69292699 32.057675 -74.15205142 32.10102949 -70.60791016 32.19921875 C-55.37458667 33.16912095 -55.37458667 33.16912095 -42.24462891 26.80661011 C-39.96248183 24.32455381 -38.05175437 21.75356043 -36.1328125 18.9765625 C-34.94248298 17.5859475 -33.73612085 16.20874821 -32.5078125 14.8515625 C-30.65465494 12.77230566 -28.93012657 10.69836777 -27.2883606 8.44497681 C-19.43775881 -1.13757177 -11.45055266 -0.34186757 0 0 Z " fill="#FFFAFA" transform="translate(147.1328125,63.0234375)"/>
<path d="M0 0 C1.18358597 0.00888245 2.36717194 0.01776489 3.58662415 0.0269165 C4.24055145 0.0263324 4.89447876 0.02574829 5.56822205 0.02514648 C7.72764857 0.02793119 9.88569106 0.05903765 12.0448761 0.09039307 C13.54273728 0.09785418 15.04060823 0.10354772 16.53848267 0.10754395 C20.47936491 0.1228108 24.41965671 0.16210083 28.36030579 0.20635986 C32.38203443 0.24729039 36.40385855 0.26555017 40.42573547 0.28570557 C48.31598028 0.32859481 56.20574535 0.39685799 64.09565735 0.48101807 C57.81545851 7.85317767 57.81545851 7.85317767 54.72846985 11.16461182 C53.87092102 12.08488159 53.87092102 12.08488159 52.99604797 13.02374268 C52.11722961 13.96165649 52.11722961 13.96165649 51.22065735 14.91851807 C50.60641907 15.57666504 49.99218079 16.23481201 49.35932922 16.91290283 C46.16875528 20.31868048 42.94114417 23.6634498 39.59565735 26.91851807 C33.40606603 33.01493275 28.99827093 38.30946523 28.78315735 47.23101807 C28.74577454 48.23648682 28.70839172 49.24195557 28.6698761 50.27789307 C29.58958367 57.19679408 34.13047409 61.99492794 38.78315735 66.85601807 C39.31062561 67.41764648 39.83809387 67.9792749 40.38154602 68.55792236 C44.19234709 72.59489059 48.11011548 76.51831883 52.0605011 80.41851807 C56.41857715 84.83514793 60.38995693 89.50940713 64.09565735 94.48101807 C55.44640902 94.59696114 46.79742892 94.6857575 38.14757252 94.74007893 C34.13088307 94.76615314 30.11472597 94.80150985 26.0983429 94.85821533 C22.22092154 94.91261516 18.3440116 94.94245498 14.46623802 94.95540428 C12.98822161 94.96463008 11.51023264 94.98264664 10.03243446 95.00966835 C7.95890361 95.04606894 5.88747481 95.05095946 3.81367493 95.04864502 C2.63453018 95.05974808 1.45538544 95.07085114 0.24050903 95.08229065 C-3.79960842 94.30984982 -5.29731394 92.5698163 -7.90434265 89.48101807 C-4.78129895 82.6643746 0.90901707 77.63410192 6.22065735 72.48101807 C13.48011356 65.29879011 18.35535425 58.12650956 18.47065735 47.66851807 C18.34895815 39.9122227 16.67253058 35.6305298 11.84565735 29.73101807 C4.36429643 23.60990459 -1.99874052 22.85477599 -11.40434265 22.73101807 C-12.5129364 22.70136963 -13.62153015 22.67172119 -14.76371765 22.64117432 C-17.47733017 22.57099468 -20.19010945 22.51804194 -22.90434265 22.48101807 C-19.1889734 18.03513074 -15.35967883 13.84390602 -11.21684265 9.79351807 C-7.57885138 6.35483833 -7.57885138 6.35483833 -4.6545105 2.34997559 C-2.90434265 0.48101807 -2.90434265 0.48101807 0 0 Z " fill="#FF4949" transform="translate(134.9043426513672,72.51898193359375)"/>
<path d="M0 0 C3.78855666 2.16374043 6.39894212 4.92853155 8 9 C8.74696193 15.15809308 8.93186869 21.17634282 5.328125 26.4296875 C3.29631151 28.83200816 1.11215582 31.03255395 -1.1640625 33.203125 C-2.95513037 34.95608505 -4.5682441 36.77598815 -6.1875 38.6875 C-9.76795054 42.85119136 -13.63248094 46.69264757 -17.5612793 50.52416992 C-18.04765869 51.00217041 -18.53403809 51.4801709 -19.03515625 51.97265625 C-19.50870544 52.42683426 -19.98225464 52.88101227 -20.47015381 53.34895325 C-22.04630445 54.93315705 -22.04630445 54.93315705 -23.06617737 56.80285645 C-24.51635169 59.09484779 -25.7553482 60.45071146 -28 62 C-33.0759027 62.9969324 -38.09913023 62.81573493 -43.2421875 62.68359375 C-44.73574497 62.6705255 -46.22933261 62.66056712 -47.72293091 62.65357971 C-51.63968872 62.62694889 -55.55460727 62.55827524 -59.47064209 62.48065186 C-63.47236247 62.40883157 -67.47438234 62.37702851 -71.4765625 62.34179688 C-79.31854911 62.2668944 -87.15904529 62.14754665 -95 62 C-91.87175104 58.32487516 -88.7487454 54.65644493 -85.44921875 51.1328125 C-84.83739746 50.47925781 -84.22557617 49.82570312 -83.59521484 49.15234375 C-82.650896 48.14880859 -82.650896 48.14880859 -81.6875 47.125 C-81.02959473 46.42246094 -80.37168945 45.71992188 -79.69384766 44.99609375 C-75.55789224 40.59687649 -71.34898025 36.30507397 -66.9296875 32.1875 C-64.97735179 30.16583338 -64.97735179 30.16583338 -64.04258728 28.06384277 C-61.19687904 22.42449437 -61.19687904 22.42449437 -58.00787354 21.29345703 C-55.55653789 21.07349524 -53.22005963 21.09921138 -50.76171875 21.21875 C-49.88095169 21.23006958 -49.00018463 21.24138916 -48.09272766 21.25305176 C-45.28874006 21.29772021 -42.48993186 21.39804967 -39.6875 21.5 C-37.78327717 21.54014001 -35.87897389 21.5766399 -33.97460938 21.609375 C-29.31442084 21.6974228 -24.65808729 21.83539209 -20 22 C-20.02465332 21.10941895 -20.04930664 20.21883789 -20.07470703 19.30126953 C-20.09388184 18.13192871 -20.11305664 16.96258789 -20.1328125 15.7578125 C-20.15746582 14.59910645 -20.18211914 13.44040039 -20.20751953 12.24658203 C-19.91273782 7.63480889 -18.41732003 5.01953674 -15 2 C-10.13596291 -1.53748152 -5.63268033 -1.66259795 0 0 Z " fill="#FF4949" transform="translate(136,105)"/>
<path d="M0 0 C1.74135223 0.00022659 1.74135223 0.00022659 3.5178833 0.00045776 C4.76591736 0.01078033 6.01395142 0.02110291 7.29980469 0.03173828 C9.22237091 0.03598312 9.22237091 0.03598312 11.18377686 0.04031372 C14.58357607 0.0479329 17.98320315 0.06756644 21.38293457 0.08972168 C24.85520092 0.1102172 28.32749522 0.11932334 31.79980469 0.12939453 C38.607174 0.15081414 45.41440084 0.18598218 52.22167969 0.22705078 C51.23167969 4.51705078 50.24167969 8.80705078 49.22167969 13.22705078 C28.10167969 13.22705078 6.98167969 13.22705078 -14.77832031 13.22705078 C-13.8264492 7.51582412 -13.55711003 6.11380592 -9.77832031 2.22705078 C-6.48071332 0.13502968 -3.86681155 -0.01681222 0 0 Z " fill="#FF4747" transform="translate(56.7783203125,103.77294921875)"/>
</svg>
